<svg id="Capa_1" data-name="Capa 1" xmlns="http://www.w3.org/2000/svg" viewBox="0 0 783.11 295.24"><defs><style>.cls-1{fill:#3f3f3f;}</style></defs><path class="cls-1" d="M528.23,188.45a20.26,20.26,0,0,1,2.2-.11,3.77,3.77,0,0,1,3.26,1.5,4,4,0,0,1,.76,3.4c-.32,2.16-1.77,3.39-3.4,4.65-.41,0-.8.11-1.21.14-1.56.09-2.91,0-4.06-1.28a4.11,4.11,0,0,1-.88-3.5C525.25,191,526.47,189.85,528.23,188.45Z" transform="translate(-12.13 -94.9)"/><path class="cls-1" d="M300.92,95.53a3.06,3.06,0,0,0-2.65-.53,4.6,4.6,0,0,0-2.18,2.69c-1.48,4-2,8.45-3.43,12.55q-8.49,24.83-16,50-15,47-30.44,93.78c-5,14.88-9.9,29.5-15.8,44-2.13,5.25-4.1,10.75-6.79,15.74l-.63.31h.49a5.84,5.84,0,0,1-1.39,1.18l-.73-.28c-2.32-4.55,0-35.21,0-42.12-.09-30.55-2.65-62.17-12.24-91.33-6.54-19.85-20.24-40.4-39.36-50-8.89-4.46-20.09-6.79-29.73-3.44-5.1,1.79-10.76,5.65-13.17,10.61l.18.06c1.74-.61,3.51-1.18,5.23-1.85l.24-.25.79-.77c.27-.25.54-.49.83-.72s.57-.47.86-.69.59-.45.9-.65l.92-.6c.31-.2.64-.38,1-.56s.65-.35,1-.5l1-.47c.31-.14.69-.28,1-.4l1.05-.36c.35-.11.71-.22,1.05-.3s.72-.19,1.08-.26l1.09-.2c.36-.06.73-.11,1.09-.15s.73-.07,1.1-.09c10.53-.55,20.37,4.57,28,11.46,25.33,22.93,32.08,65.51,33.66,98.18-26.14,15.36-69.84,17.14-99.63,14.55-23.28-2-53.81-8.25-75.94.39-7.76,3-16.66,8.65-19.95,16.69a15,15,0,0,0-.21,11.27,5,5,0,0,0,3.18,3,5.46,5.46,0,0,0,4.46-1.08,9.54,9.54,0,0,0,3.67-6.31c.25-1.84-.22-4.9-1.6-6.27s-2.62-1.09-4.31-1.26l-.31-.49A24.56,24.56,0,0,1,23.9,264c19.53-16.27,57-9.1,80.51-6.71q12.69,1.23,25.46,1.32c26,.06,56.07-3.45,79.32-15.52,1.18,11.64,1.81,23.76,1.85,35.5,0,8.54-.44,17.26.13,25.78.32,4.57.85,11.19,4.62,14.28a8.24,8.24,0,0,0,6.31,1.94c4.35-2.47,6.67-8.41,8.52-12.85,11.8-28.3,20.6-58.19,30.07-87.29,7-21.46,14.24-42.82,21-64.37,4.77-15.15,10.11-30.07,15-45.17,1.27-3.88,3.2-7.63,4.28-11.64A5.27,5.27,0,0,0,300.92,95.53Z" transform="translate(-12.13 -94.9)"/><path class="cls-1" d="M412.34,132.55a5.39,5.39,0,0,0-2.36-3.17c-1.33-.76-3.22-.41-4.69-.29-15.38,6.44-27.15,31.27-33.28,46.18q-3.13,7.47-5.82,15.11t-4.85,15.43q-2.19,7.77-3.88,15.7t-2.91,15.91q-1.12,7.77-1.87,15.52c-.41,4.7-.38,9.7-1.58,14.22-1.88,7.23-13.89,36.55-19.39,40.17h-.91c-3.76-4.85-1.12-25.27-.26-32q1.53-10.95,3.88-21.75c.71-3.39,2-6.89,2.2-10.37a6.94,6.94,0,0,0-1.09-4.77c-1.18-1.47-3.62-1.94-5.42-2a7.27,7.27,0,0,0-4.2,1c-2.24,1.7-4.7,7-6.2,9.48-4.85,8.17-23.28,42.12-32.33,42a2.84,2.84,0,0,1-2-.85c-3.1-3-2.45-12.12-1.94-16.15,2-14.55,10-32,22-41,3.5-2.64,7.76-4.64,12.27-4s5.22,4.64,8.89,6.1c.91-.65.7-.26.89-1.31a5,5,0,0,0-1.25-3.94c-2.59-3.42-7-5.48-11.25-6-7.17-1-14.45,2.21-19.93,6.68-11.26,9.2-19.55,26.87-20.84,41.2-.55,6.11-.24,12.91,3.77,17.89a13,13,0,0,0,9.62,5c5.23.31,9.83-2.38,13.53-5.82,9.53-8.87,16.37-21.94,22.88-33.13-1.51,12.74-7.7,45.93.34,55.5a6.74,6.74,0,0,0,4.85,2.42,8.29,8.29,0,0,0,6.16-2.41c6.92-6.31,13-25.22,16.42-34.39,1.15,4.62,2.29,10.52,4.52,15.52.24.44.44.9.63,1.35a9.45,9.45,0,0,0,.57,1.07c.87,1.29,1.82,2.58,2.83,3.88a22.3,22.3,0,0,0,2.27,2.07l.44.32a9.2,9.2,0,0,0,4,1.42,4.69,4.69,0,0,1,1.23-3.34,4.06,4.06,0,0,1-1.08-.64c-1.81-.89-2.91-2.91-3.69-4.68-2.64-6.44-4.76-30.91-2-37.45,1.61-3.88,4.7-7.76,7-11.24q5.46-8.4,10.3-17.17C387.25,210.44,417.26,147.55,412.34,132.55Zm-7.15,22.65q-3.78,11.72-8.26,23.17t-9.7,22.6q-5.18,11.16-11,22t-12.3,21.27l-.64.62c-1.94-4,12-51.54,14.16-58.19,4.38-13.34,14.8-41.45,23.91-51a19.57,19.57,0,0,1,5.73-3.83,4.35,4.35,0,0,1,.71.18,2.76,2.76,0,0,1,1.28,2.21C410.27,140.1,407,149.52,405.19,155.2Z" transform="translate(-12.13 -94.9)"/><path class="cls-1" d="M793.71,186.84c-.14-.18-.3-.37-.45-.54l-.52-.49a5.89,5.89,0,0,0-.55-.44c-.19-.14-.4-.26-.6-.38a5.46,5.46,0,0,0-.64-.32c-.21-.1-.44-.18-.66-.26a5.27,5.27,0,0,0-.68-.19,6.29,6.29,0,0,0-5.14,1.1,7.09,7.09,0,0,0-2.33,5,5.89,5.89,0,0,0,1.45,4.49,25.5,25.5,0,0,0,4.69,3.51c.21,1.67-1.28,3.63-2.28,4.92-8.36,10.82-22.55,16.66-35.81,18.14-17.46,1.94-34.26-2.28-51.55-3.41-20.95-.31-43.54,3.34-59.16,18.56a52.54,52.54,0,0,0-8.27,10.78c-2.82,4.7-10.77,23.1-15.81,23.72a4.17,4.17,0,0,1-3.32-1.27c-3.77-3.61-3.82-11.05-3.74-15.92a127.58,127.58,0,0,1,3.32-25.44C612.75,223.55,615,218,615,213a6.28,6.28,0,0,0-1.84-4.52,6.78,6.78,0,0,0-5-2.25c-1.94.11-3,1-4.26,2.47-7.92,9.28-24,49.81-34.92,50.91a3.49,3.49,0,0,1-3-1.11c-3.11-2.84-2.72-11.91-2.33-15.86,1.3-13.58,9.89-38.14,20.7-47,1.66-1.36,4-3,6.34-2.84a5.68,5.68,0,0,1,4.08,2.17c3.66,4.45.42,12,2.91,13.8a5.07,5.07,0,0,0,2.91-3.33,13.76,13.76,0,0,0-.35-10.72,9.3,9.3,0,0,0-5.93-4.55A17.05,17.05,0,0,0,581,192.2c-20.25,11.77-34.34,71.88-49.53,73.28a5.45,5.45,0,0,1-3.58-2.91c-4.3-7.86.82-32.62,2.78-41.32,1-4.42,3.55-11.23,2.91-15.59-.15-1-1.28-1.75-2.21-2.07a6.67,6.67,0,0,0-5.2.25c-3.22,3.87-6.12,23.59-6.79,29.3-.46,4-.39,8.06-1.12,12-1.51,8.08-11.46,39.56-20.49,40.74h-1.13a1.54,1.54,0,0,1-.56-.07l-.55-.13a4.81,4.81,0,0,1-.53-.2,3.48,3.48,0,0,1-.52-.24c-.16-.09-.32-.18-.48-.29l-.46-.34c-3.83-3.18-4.29-10.49-4.52-15.15-.75-16.28,4.64-31.21,6.14-47.13-5.82-4.34-12.65-7.29-18.74-11.24,6-11.89,15.52-29.35,11.28-43.07a10.35,10.35,0,0,0-12.21-8.07,10,10,0,0,0-2.34.77,20.15,20.15,0,0,0-11.11,10.67c-3.83,8.34-2.68,18.14.61,26.46a35.55,35.55,0,0,0,9.44,14c-8.16,15.31-29.59,51.3-46.43,56.25-2.72.8-6.2,1.12-8.73-.37s-3.83-4.52-4.47-7.32c-1.61-7.07-.63-15.37.13-22.54,9.57-6,21.33-15.43,24.06-27.09.66-2.91.65-6.12-1-8.73-.14-.2-.27-.41-.42-.59a6.19,6.19,0,0,0-.47-.55,6.38,6.38,0,0,0-.53-.51,4.81,4.81,0,0,0-.57-.44,5.81,5.81,0,0,0-.61-.4,4.9,4.9,0,0,0-.65-.32,6.31,6.31,0,0,0-.68-.26,6.62,6.62,0,0,0-.71-.2c-3.56-.79-7.49.78-10.41,2.74-9.23,6.1-14.15,19.24-16,29.62-.82,4.57-1,9.33-2.11,13.83-2.85,11.64-14.29,44-23.88,50.54-2.28,1.57-5.51,2.84-8.32,2.27a6.42,6.42,0,0,1-1.28-.43l-.54-.21a17.55,17.55,0,0,1-4.17-1.75l-.37-.2c-.69-.42-1.37-.88-2-1.37a8.11,8.11,0,0,1-1.09,3,22.72,22.72,0,0,0,2.48,2.22,14.46,14.46,0,0,0,6.11,2.34,18.92,18.92,0,0,0,7.76-1,17.5,17.5,0,0,0,5.89-4.13c9.59-10,16.12-29.56,19.9-42.9,1.59,6.32,3.71,13.32,9.7,16.85a17.16,17.16,0,0,0,13.49,1.24c17-5.23,39.76-41.63,48.37-57.32,4,2.4,8.73,4.6,12.45,7.45-3.81,16.17-10.61,45.89-1.23,60.84,1.94,3.1,5.05,6.15,8.73,7a9.21,9.21,0,0,0,7.34-1.65c8.91-6.15,14.12-24.48,17.46-34.59,1.32,5.4,3.26,12.61,8.3,15.8a6.82,6.82,0,0,0,5.39.84c5.82-1.43,9.7-7.3,12.52-12.22a142.65,142.65,0,0,0,10.33-22.43c.19,7.76-.35,20.06,5.54,26a9.1,9.1,0,0,0,6.79,2.63c4.27-.07,7.63-2.7,10.4-5.72,9.49-10.35,19.28-32.58,26.51-45.42-3.38,15.52-9.29,42.43-.28,56.87a11.81,11.81,0,0,0,6.91,5.38,8.48,8.48,0,0,0,7-1.57c3.88-2.73,6-7.22,8.08-11.36,7.49-15.21,13.52-25.28,29.52-32.7a87.9,87.9,0,0,1,36.86-7.84c10.67.09,21,2.06,31.54,3.22,21.41,2.34,42.77-.22,59.45-15,4.62-4.1,9.9-10.13,10.88-16.42A8.23,8.23,0,0,0,793.71,186.84ZM413.92,229.32c2.14-8.23,5.15-20.1,13-24.71h.57c1.94-.05,4,.11,5.41,1.76a4.31,4.31,0,0,1,.79,3.35c-1,8.85-11.21,18.19-17.7,23.45l-3.62,2.63C412.83,233.63,413.38,231.47,413.92,229.32ZM470.46,206l-.4.07c-1.78-1.12-3.26-5.15-4-7.13-3.16-8.32-4.93-19.4-1-27.75a14.53,14.53,0,0,1,9.12-8,7.76,7.76,0,0,1,4.19.29,6.43,6.43,0,0,1,3.41,4.14C485,178.48,475.61,196.47,470.46,206Z" transform="translate(-12.13 -94.9)"/><path class="cls-1" d="M416.46,333.76a93.19,93.19,0,0,1,16,.39,63.32,63.32,0,0,1-6,3.23q-.46,23.82.46,47.62c4.57.09,11.33.84,15.52-1.16a4.82,4.82,0,0,0,2.85-3.34c.06-.16.41-1.19.51-1.36a2.25,2.25,0,0,1,2-1.46l.59.62-.09,1.52c-.14,2.74-.52,5.46-.86,8.18q-14.55,0-29.09.23c-1.08-1.13,1.63-3.11,2.49-4.93,1-2.1.88-5.71,1-8,.36-12.66.07-25.51-.4-38.16C419.12,336.29,417.84,335.93,416.46,333.76Z" transform="translate(-12.13 -94.9)"/><path class="cls-1" d="M300.33,333.24c15.17.56,30.35.14,45.52.41a37.33,37.33,0,0,1-.09,6.85,3.13,3.13,0,0,1-1.44,2.26c-1.28-1.23-1.78-3.88-2.51-5.57-3.88-1.94-10.21-1-14.42-.39l-.68.1q-.37,20.22-.49,40.44a69.44,69.44,0,0,0,.32,7.21c2,1.21,4.15,2.28,6.22,3.4-3.26,0-6.53.1-9.78,0-1.53,0-2.75-.11-3.82-1.24.63-1.38,1.36-1.55,2.63-2.3,1.07-15.59.28-31.74.27-47.41-4.63-.12-12-1.56-16.27,0-2.2.81-2.1,3.6-3.08,5.41-.48.86-.6.69-1.5,1l-.57-.45C300,339.83,300.28,336.41,300.33,333.24Z" transform="translate(-12.13 -94.9)"/><path class="cls-1" d="M272.56,331.81a30.94,30.94,0,0,1,5.93.19c2.05.2,4.48.3,5.72,2.23,1.61,2.49.44,6.79.13,9.57a35.84,35.84,0,0,0-2.81-5.21,8.91,8.91,0,0,0-6-3.31,9.46,9.46,0,0,0-7.35,1.57A8.07,8.07,0,0,0,265,342.4c-.39,8.52,14.8,15.69,19.86,21.52,3,3.47,5.05,7.67,4.61,12.37A16.26,16.26,0,0,1,283.74,387c-4.47,3.55-10.09,3.54-15.45,2.79-2.48-.57-4.94-1.21-7-2.86-2.36-1.94-3.2-4.7-3.4-7.65a4.56,4.56,0,0,1,1-3.75c.4.07.9-.08,1.2.19,1.36,1.21,1.55,6.36,5.29,9,2.91,2,7.76,2.33,11.12,1.63a10,10,0,0,0,6.78-4.61,11.61,11.61,0,0,0,1.42-6.63c-.71-13.09-19.94-14.89-23.08-27.48-.84-3.36-.43-7.76,1.52-10.67C265.36,333.75,269,332.61,272.56,331.81Z" transform="translate(-12.13 -94.9)"/><path class="cls-1" d="M376.07,333.4q8.37-.34,16.72-.17a68.56,68.56,0,0,1-.23,9.4c-1.45-1.8-2.81-3.68-4.21-5.52-5.36-1.29-10.87-1.07-16.33-1q.19,11.21.17,22.39c4.47.11,8.92,0,13.38-.15.51-1.76,1-3.77,2.57-4.85,1.7,1.94.86,7.11.71,9.6-5.63-2.17-10.67-1.9-16.54-1.54-.78,7.07-1,16.15.27,23.15,4.19,0,12.05.85,15.57-1.66a3.4,3.4,0,0,0,1.27-2.58,13.65,13.65,0,0,1,.25-1.37,3.53,3.53,0,0,1,2.1-2.25l.74.29c1.22,2.91.19,7.57-.31,10.61-5.19.39-24.25,1.23-28.13-.71l-.27-.82c.8-1.48,2.37-1.94,3.81-2.67.42-8.5,1.15-40.41-.8-47.28a5.8,5.8,0,0,1-2.91-1.66l.4-.77C368.1,333.13,372.24,333.42,376.07,333.4Z" transform="translate(-12.13 -94.9)"/><path class="cls-1" d="M561.59,379.65c-2.91-7.25-14.89-44.21-18-46.88-2.2,3.61-3.45,8.08-4.93,12-3.55,9.47-13.18,37.75-19.17,43.65,3.58,0,7.41.17,10.91-.54l.5-.57c-1.19-1.15-2.92-1.43-4.49-1.94,1.84-5.47,4.23-10.73,6.52-16l8.73-.05,11.69.11c2,5,3.73,10.22,5.76,15.27l-1,2.16c.63.91.68,1,1.74,1.2,1.94.41,6.19.51,8-.37C567,385,563,383.24,561.59,379.65Zm-18-12.85c-3,0-6.1-.21-9.14-.33,2.37-8.21,6-16.28,8.94-24.37,3.57,7.76,5.91,16.41,9,24.39Z" transform="translate(-12.13 -94.9)"/><path class="cls-1" d="M467.37,333.76a93.19,93.19,0,0,1,16,.39,63.32,63.32,0,0,1-6,3.23q-.44,23.82.47,47.62c4.56.09,11.32.84,15.52-1.16a4.86,4.86,0,0,0,2.91-3.34,7.75,7.75,0,0,1,.5-1.36,2.25,2.25,0,0,1,2.05-1.46l.58.62-.09,1.52c-.14,2.74-.52,5.46-.85,8.18q-14.55,0-29.09.23c-1.08-1.13,1.62-3.11,2.5-4.93,1-2.1.87-5.71,1-8,.36-12.66.08-25.51-.4-38.16C470,336.29,468.75,335.93,467.37,333.76Z" transform="translate(-12.13 -94.9)"/></svg>